<?xml version="1.0" encoding="UTF-8"?>
<svg width="254px" height="68px" viewBox="0 0 254 68" version="1.1" xmlns="http://www.w3.org/2000/svg" xmlns:xlink="http://www.w3.org/1999/xlink">
    <!-- Generator: Sketch 48.2 (47327) - http://www.bohemiancoding.com/sketch -->
    <title>Untitled</title>
    <desc>Created with Sketch.</desc>
    <defs></defs>
    <g id="Page-1" stroke="none" stroke-width="1" fill="none" fill-rule="evenodd">
        <g id="On-White-Background" fill="#313048">
            <path d="M30.3675,35.2269 L30.3675,30.5829 C30.3675,28.4389 32.1115,26.6939 34.2555,26.6939 C36.4005,26.6939 38.1445,28.4389 38.1445,30.5829 L38.1445,35.2269 L30.3675,35.2269 Z M34.2555,21.0349 C29.2665,21.0349 25.1645,24.8849 24.7495,29.7689 C24.7305,29.9039 24.7085,30.0379 24.7085,30.1779 L24.7085,43.1939 C24.7085,44.7559 25.9755,46.0229 27.5385,46.0229 C29.1005,46.0229 30.3675,44.7559 30.3675,43.1939 L30.3675,40.8859 L38.1445,40.8859 L38.1445,43.1939 C38.1445,44.7559 39.4105,46.0229 40.9735,46.0229 C42.5365,46.0229 43.8035,44.7559 43.8035,43.1939 L43.8035,30.1779 C43.8035,30.0379 43.7815,29.9039 43.7615,29.7689 C43.3465,24.8849 39.2455,21.0349 34.2555,21.0349 L34.2555,21.0349 Z" id="Fill-2"></path>
            <path d="M34.2558,61.3994 C18.8878,61.3994 6.3858,48.8974 6.3858,33.5294 C6.3858,18.1614 18.8878,5.6594 34.2558,5.6594 C49.6238,5.6594 62.1258,18.1614 62.1258,33.5294 C62.1258,48.8974 49.6238,61.3994 34.2558,61.3994 M34.2558,0.0004 C15.7678,0.0004 0.7268,15.0414 0.7268,33.5294 C0.7268,52.0174 15.7678,67.0584 34.2558,67.0584 C52.7438,67.0584 67.7848,52.0174 67.7848,33.5294 C67.7848,15.0414 52.7438,0.0004 34.2558,0.0004" id="Fill-4"></path>
            <path d="M99.7839,35.2269 L99.7839,30.5829 C99.7839,28.4389 101.5279,26.6939 103.6719,26.6939 C105.8169,26.6939 107.5609,28.4389 107.5609,30.5829 L107.5609,35.2269 L99.7839,35.2269 Z M103.6719,21.0349 C98.6829,21.0349 94.5809,24.8849 94.1659,29.7689 C94.1469,29.9039 94.1249,30.0379 94.1249,30.1779 L94.1249,43.1939 C94.1249,44.7559 95.3919,46.0229 96.9549,46.0229 C98.5169,46.0229 99.7839,44.7559 99.7839,43.1939 L99.7839,40.8859 L107.5609,40.8859 L107.5609,43.1939 C107.5609,44.7559 108.8269,46.0229 110.3899,46.0229 C111.9529,46.0229 113.2199,44.7559 113.2199,43.1939 L113.2199,30.1779 C113.2199,30.0379 113.1979,29.9039 113.1779,29.7689 C112.7629,24.8849 108.6619,21.0349 103.6719,21.0349 L103.6719,21.0349 Z" id="Fill-6"></path>
            <path d="M161.7917,21.0354 C159.1737,21.0354 156.8007,22.0954 155.0737,23.8074 C153.3477,22.0954 150.9737,21.0354 148.3557,21.0354 C143.3667,21.0354 139.2657,24.8844 138.8497,29.7694 C138.8307,29.9034 138.8087,30.0384 138.8087,30.1784 L138.8087,43.1934 C138.8087,44.7564 140.0757,46.0234 141.6387,46.0234 C143.2017,46.0234 144.4677,44.7564 144.4677,43.1934 L144.4677,30.5824 C144.4677,28.4384 146.2117,26.6944 148.3557,26.6944 C150.5007,26.6944 152.2447,28.4384 152.2447,30.5824 L152.2447,37.5344 C152.2447,39.0974 153.5107,40.3644 155.0737,40.3644 C156.6367,40.3644 157.9037,39.0974 157.9037,37.5344 L157.9037,30.5824 C157.9037,28.4384 159.6477,26.6944 161.7917,26.6944 C163.9357,26.6944 165.6797,28.4384 165.6797,30.5824 L165.6797,43.1934 C165.6797,44.7564 166.9467,46.0234 168.5097,46.0234 C170.0727,46.0234 171.3387,44.7564 171.3387,43.1934 L171.3387,30.1784 C171.3387,30.0384 171.3177,29.9034 171.2977,29.7694 C170.8827,24.8844 166.7817,21.0354 161.7917,21.0354" id="Fill-8"></path>
            <path d="M133.5003,37.5965 C132.1483,36.8135 130.4163,37.2765 129.6343,38.6285 C128.9403,39.8285 127.6493,40.5745 126.2643,40.5745 C124.1203,40.5745 122.3763,38.8295 122.3763,36.6855 L122.3763,30.6325 C122.3763,30.6305 122.3773,30.6285 122.3773,30.6265 C122.3773,28.4825 124.1213,26.7385 126.2653,26.7385 C127.5593,26.7385 128.7653,27.3805 129.4913,28.4545 C130.0383,29.2645 130.9303,29.7005 131.8383,29.7005 C132.3833,29.7005 132.9343,29.5435 133.4203,29.2155 C134.7153,28.3405 135.0553,26.5815 134.1803,25.2865 C132.4003,22.6525 129.4413,21.0795 126.2653,21.0795 C121.3093,21.0795 117.2263,24.8765 116.7643,29.7135 C116.7393,29.8655 116.7173,30.0185 116.7173,30.1785 L116.7173,37.5345 C116.7173,37.8695 116.7863,38.1875 116.8933,38.4855 C117.7383,42.8915 121.6163,46.2335 126.2643,46.2335 C129.6613,46.2335 132.8303,44.4055 134.5323,41.4625 C135.3153,40.1095 134.8533,38.3795 133.5003,37.5965" id="Fill-10"></path>
            <path d="M229.6916,37.4694 C228.3396,36.6854 226.6076,37.1494 225.8256,38.5014 C225.1316,39.7014 223.8406,40.4474 222.4556,40.4474 C220.3116,40.4474 218.5676,38.7024 218.5676,36.5584 L218.5676,30.5054 C218.5676,30.5034 218.5686,30.5014 218.5686,30.4994 C218.5686,28.3554 220.3126,26.6114 222.4566,26.6114 C223.7506,26.6114 224.9556,27.2534 225.6826,28.3274 C226.2296,29.1374 227.1216,29.5734 228.0296,29.5734 C228.5746,29.5734 229.1256,29.4164 229.6116,29.0884 C230.9066,28.2134 231.2466,26.4544 230.3716,25.1594 C228.5916,22.5254 225.6326,20.9524 222.4566,20.9524 C217.5006,20.9524 213.4176,24.7494 212.9556,29.5864 C212.9306,29.7384 212.9086,29.8914 212.9086,30.0514 L212.9086,37.4074 C212.9086,37.7424 212.9776,38.0604 213.0846,38.3584 C213.9296,42.7644 217.8076,46.1064 222.4556,46.1064 C225.8526,46.1064 229.0216,44.2784 230.7236,41.3354 C231.5066,39.9824 231.0446,38.2524 229.6916,37.4694" id="Fill-12"></path>
            <path d="M243.8461,40.4271 C243.8011,40.4271 243.7591,40.4381 243.7151,40.4401 C241.6321,40.3701 239.9581,38.6581 239.9581,36.5591 L239.9581,30.5001 C239.9581,28.3561 241.7021,26.6111 243.8461,26.6111 C245.1401,26.6111 246.3461,27.2531 247.0721,28.3281 C247.5061,28.9691 247.7341,29.7201 247.7341,30.5001 L247.7341,36.5391 C247.7341,37.3181 247.5061,38.0691 247.0721,38.7111 C246.3461,39.7851 245.1401,40.4271 243.8461,40.4271 M253.3671,29.7921 C253.3661,29.7771 253.3641,29.7621 253.3631,29.7471 C253.3521,29.6541 253.3501,29.5571 253.3311,29.4671 C253.1651,27.9261 252.6351,26.4531 251.7611,25.1601 C249.9821,22.5251 247.0231,20.9521 243.8461,20.9521 C238.8861,20.9521 234.8011,24.7551 234.3451,29.5971 C234.3201,29.7461 234.2991,29.8951 234.2991,30.0511 L234.2991,37.4071 C234.2991,37.7431 234.3671,38.0601 234.4751,38.3581 C235.3191,42.7641 239.1971,46.1061 243.8461,46.1061 C243.9441,46.1061 244.0361,46.0871 244.1311,46.0771 C247.1981,45.9861 250.0351,44.4341 251.7611,41.8791 C252.4791,40.8171 252.9631,39.6341 253.2071,38.3921 C253.3221,38.0841 253.3931,37.7551 253.3931,37.4071 L253.3931,30.0511 C253.3931,29.9621 253.3751,29.8791 253.3671,29.7921" id="Fill-14"></path>
            <path d="M188.8553,29.8981 L181.1783,29.8981 C181.4683,28.0391 183.0753,26.6111 185.0153,26.6111 C186.3083,26.6111 187.5143,27.2531 188.2403,28.3281 C188.5613,28.8021 188.7683,29.3371 188.8553,29.8981 M192.9293,25.1591 C191.1493,22.5251 188.1903,20.9521 185.0153,20.9521 C179.9683,20.9521 175.8353,24.8901 175.5003,29.8531 C175.4883,29.9611 175.4673,30.0671 175.4673,30.1781 L175.4673,37.5351 C175.4673,37.9421 175.5573,38.3281 175.7133,38.6781 C176.6803,42.9241 180.4793,46.1061 185.0153,46.1061 C185.0193,46.1061 185.0233,46.1051 185.0273,46.1051 C188.4193,46.1001 191.5813,44.2741 193.2823,41.3351 C194.0653,39.9831 193.6033,38.2521 192.2513,37.4691 C190.8973,36.6861 189.1673,37.1481 188.3843,38.5001 C187.6893,39.7001 186.3983,40.4461 185.0153,40.4461 C185.0133,40.4461 185.0113,40.4471 185.0093,40.4471 C182.8673,40.4441 181.1263,38.7011 181.1263,36.5591 L181.1263,35.5571 L191.7323,35.5571 C193.2953,35.5571 194.5623,34.2901 194.5623,32.7271 L194.5623,29.4741 C194.5623,29.0591 194.4683,28.6691 194.3083,28.3141 C194.0453,27.1941 193.5833,26.1261 192.9293,25.1591" id="Fill-16"></path>
        </g>
    </g>
</svg>