<?xml version="1.0" encoding="UTF-8"?>
<svg width="254px" height="68px" viewBox="0 0 254 68" version="1.1" xmlns="http://www.w3.org/2000/svg" xmlns:xlink="http://www.w3.org/1999/xlink">
    <!-- Generator: Sketch 48.2 (47327) - http://www.bohemiancoding.com/sketch -->
    <title>On Dark Background</title>
    <desc>Created with Sketch.</desc>
    <defs></defs>
    <g id="Page-1" stroke="none" stroke-width="1" fill="none" fill-rule="evenodd">
        <g id="On-Dark-Background">
            <path d="M30.3075,35.3814 L30.3075,30.7374 C30.3075,28.5934 32.0515,26.8484 34.1955,26.8484 C36.3405,26.8484 38.0845,28.5934 38.0845,30.7374 L38.0845,35.3814 L30.3075,35.3814 Z M34.1955,21.1894 C29.2065,21.1894 25.1045,25.0394 24.6895,29.9234 C24.6705,30.0584 24.6485,30.1924 24.6485,30.3324 L24.6485,43.3484 C24.6485,44.9104 25.9155,46.1774 27.4785,46.1774 C29.0405,46.1774 30.3075,44.9104 30.3075,43.3484 L30.3075,41.0404 L38.0845,41.0404 L38.0845,43.3484 C38.0845,44.9104 39.3505,46.1774 40.9135,46.1774 C42.4765,46.1774 43.7435,44.9104 43.7435,43.3484 L43.7435,30.3324 C43.7435,30.1924 43.7215,30.0584 43.7015,29.9234 C43.2865,25.0394 39.1855,21.1894 34.1955,21.1894 L34.1955,21.1894 Z" id="Fill-18" fill="#FEFEFE"></path>
            <path d="M34.1958,61.5539 C18.8278,61.5539 6.3258,49.0519 6.3258,33.6839 C6.3258,18.3159 18.8278,5.8139 34.1958,5.8139 C49.5638,5.8139 62.0658,18.3159 62.0658,33.6839 C62.0658,49.0519 49.5638,61.5539 34.1958,61.5539 M34.1958,0.1549 C15.7078,0.1549 0.6668,15.1959 0.6668,33.6839 C0.6668,52.1719 15.7078,67.2129 34.1958,67.2129 C52.6838,67.2129 67.7248,52.1719 67.7248,33.6839 C67.7248,15.1959 52.6838,0.1549 34.1958,0.1549" id="Fill-20" fill="#FEFEFE"></path>
            <path d="M99.7239,35.3814 L99.7239,30.7374 C99.7239,28.5934 101.4679,26.8484 103.6119,26.8484 C105.7569,26.8484 107.5009,28.5934 107.5009,30.7374 L107.5009,35.3814 L99.7239,35.3814 Z M103.6119,21.1894 C98.6229,21.1894 94.5209,25.0394 94.1059,29.9234 C94.0869,30.0584 94.0649,30.1924 94.0649,30.3324 L94.0649,43.3484 C94.0649,44.9104 95.3319,46.1774 96.8949,46.1774 C98.4569,46.1774 99.7239,44.9104 99.7239,43.3484 L99.7239,41.0404 L107.5009,41.0404 L107.5009,43.3484 C107.5009,44.9104 108.7669,46.1774 110.3299,46.1774 C111.8929,46.1774 113.1599,44.9104 113.1599,43.3484 L113.1599,30.3324 C113.1599,30.1924 113.1379,30.0584 113.1179,29.9234 C112.7029,25.0394 108.6019,21.1894 103.6119,21.1894 L103.6119,21.1894 Z" id="Fill-22" fill="#FFFFFF"></path>
            <path d="M161.7317,21.1898 C159.1137,21.1898 156.7407,22.2498 155.0137,23.9618 C153.2877,22.2498 150.9137,21.1898 148.2957,21.1898 C143.3067,21.1898 139.2057,25.0388 138.7897,29.9238 C138.7707,30.0578 138.7487,30.1928 138.7487,30.3328 L138.7487,43.3478 C138.7487,44.9108 140.0157,46.1778 141.5787,46.1778 C143.1417,46.1778 144.4077,44.9108 144.4077,43.3478 L144.4077,30.7378 C144.4077,28.5928 146.1517,26.8488 148.2957,26.8488 C150.4407,26.8488 152.1847,28.5928 152.1847,30.7378 L152.1847,37.6888 C152.1847,39.2518 153.4507,40.5188 155.0137,40.5188 C156.5767,40.5188 157.8437,39.2518 157.8437,37.6888 L157.8437,30.7378 C157.8437,28.5928 159.5877,26.8488 161.7317,26.8488 C163.8757,26.8488 165.6197,28.5928 165.6197,30.7378 L165.6197,43.3478 C165.6197,44.9108 166.8867,46.1778 168.4497,46.1778 C170.0127,46.1778 171.2787,44.9108 171.2787,43.3478 L171.2787,30.3328 C171.2787,30.1928 171.2577,30.0578 171.2377,29.9238 C170.8227,25.0388 166.7217,21.1898 161.7317,21.1898" id="Fill-24" fill="#FFFFFF"></path>
            <path d="M133.4403,37.751 C132.0883,36.968 130.3563,37.431 129.5743,38.783 C128.8803,39.983 127.5893,40.729 126.2043,40.729 C124.0603,40.729 122.3163,38.984 122.3163,36.84 L122.3163,30.787 C122.3163,30.785 122.3173,30.783 122.3173,30.781 C122.3173,28.637 124.0613,26.893 126.2053,26.893 C127.4993,26.893 128.7053,27.535 129.4313,28.609 C129.9783,29.419 130.8703,29.855 131.7783,29.855 C132.3233,29.855 132.8743,29.698 133.3603,29.37 C134.6553,28.495 134.9953,26.736 134.1203,25.441 C132.3403,22.807 129.3813,21.234 126.2053,21.234 C121.2493,21.234 117.1663,25.031 116.7043,29.868 C116.6793,30.02 116.6573,30.173 116.6573,30.333 L116.6573,37.689 C116.6573,38.024 116.7263,38.342 116.8333,38.64 C117.6783,43.046 121.5563,46.388 126.2043,46.388 C129.6013,46.388 132.7703,44.56 134.4723,41.617 C135.2553,40.264 134.7933,38.534 133.4403,37.751" id="Fill-26" fill="#FFFFFF"></path>
            <path d="M229.6316,37.6239 C228.2796,36.8399 226.5476,37.3039 225.7656,38.6559 C225.0716,39.8559 223.7806,40.6019 222.3956,40.6019 C220.2516,40.6019 218.5076,38.8569 218.5076,36.7129 L218.5076,30.6599 C218.5076,30.6579 218.5086,30.6559 218.5086,30.6539 C218.5086,28.5099 220.2526,26.7659 222.3966,26.7659 C223.6906,26.7659 224.8966,27.4079 225.6226,28.4819 C226.1696,29.2919 227.0616,29.7279 227.9696,29.7279 C228.5146,29.7279 229.0656,29.5709 229.5516,29.2429 C230.8466,28.3679 231.1866,26.6089 230.3116,25.3139 C228.5316,22.6799 225.5726,21.1069 222.3966,21.1069 C217.4406,21.1069 213.3576,24.9039 212.8956,29.7409 C212.8706,29.8929 212.8486,30.0459 212.8486,30.2059 L212.8486,37.5619 C212.8486,37.8969 212.9176,38.2149 213.0246,38.5129 C213.8696,42.9189 217.7476,46.2609 222.3956,46.2609 C225.7926,46.2609 228.9616,44.4329 230.6636,41.4899 C231.4466,40.1369 230.9846,38.4069 229.6316,37.6239" id="Fill-28" fill="#FFFFFF"></path>
            <path d="M243.7861,40.5816 C243.7411,40.5816 243.6991,40.5926 243.6551,40.5946 C241.5721,40.5246 239.8981,38.8126 239.8981,36.7136 L239.8981,30.6546 C239.8981,28.5106 241.6421,26.7656 243.7861,26.7656 C245.0801,26.7656 246.2861,27.4076 247.0121,28.4826 C247.4461,29.1236 247.6741,29.8746 247.6741,30.6546 L247.6741,36.6936 C247.6741,37.4726 247.4461,38.2236 247.0121,38.8656 C246.2861,39.9396 245.0801,40.5816 243.7861,40.5816 M253.3071,29.9466 C253.3061,29.9316 253.3041,29.9166 253.3031,29.9016 C253.2921,29.8086 253.2901,29.7116 253.2711,29.6216 C253.1051,28.0806 252.5751,26.6076 251.7011,25.3146 C249.9221,22.6796 246.9631,21.1066 243.7861,21.1066 C238.8261,21.1066 234.7411,24.9096 234.2851,29.7516 C234.2601,29.9006 234.2391,30.0496 234.2391,30.2056 L234.2391,37.5616 C234.2391,37.8976 234.3071,38.2146 234.4151,38.5126 C235.2591,42.9186 239.1371,46.2606 243.7861,46.2606 C243.8841,46.2606 243.9761,46.2416 244.0711,46.2316 C247.1381,46.1406 249.9751,44.5886 251.7011,42.0336 C252.4181,40.9716 252.9031,39.7886 253.1471,38.5466 C253.2621,38.2386 253.3331,37.9096 253.3331,37.5616 L253.3331,30.2056 C253.3331,30.1166 253.3151,30.0336 253.3071,29.9466" id="Fill-30" fill="#FFFFFF"></path>
            <path d="M188.7953,30.0526 L181.1183,30.0526 C181.4083,28.1936 183.0153,26.7656 184.9543,26.7656 C186.2483,26.7656 187.4543,27.4076 188.1803,28.4826 C188.5013,28.9566 188.7083,29.4916 188.7953,30.0526 M192.8693,25.3136 C191.0893,22.6796 188.1303,21.1066 184.9543,21.1066 C179.9083,21.1066 175.7753,25.0446 175.4403,30.0076 C175.4283,30.1156 175.4073,30.2216 175.4073,30.3326 L175.4073,37.6896 C175.4073,38.0966 175.4973,38.4826 175.6533,38.8326 C176.6203,43.0786 180.4193,46.2606 184.9543,46.2606 C184.9593,46.2606 184.9633,46.2596 184.9673,46.2596 C188.3593,46.2546 191.5213,44.4286 193.2223,41.4896 C194.0053,40.1376 193.5433,38.4066 192.1913,37.6236 C190.8373,36.8406 189.1073,37.3026 188.3243,38.6546 C187.6293,39.8546 186.3383,40.6006 184.9543,40.6006 C184.9533,40.6006 184.9513,40.6016 184.9493,40.6016 C182.8073,40.5986 181.0663,38.8556 181.0663,36.7136 L181.0663,35.7116 L191.6723,35.7116 C193.2353,35.7116 194.5023,34.4446 194.5023,32.8816 L194.5023,29.6286 C194.5023,29.2136 194.4083,28.8236 194.2483,28.4686 C193.9853,27.3486 193.5233,26.2806 192.8693,25.3136" id="Fill-32" fill="#FFFFFF"></path>
        </g>
    </g>
</svg>